<svg width="203" height="65" viewBox="0 0 203 65" fill="none" xmlns="http://www.w3.org/2000/svg">
<g clip-path="url(#clip0_1_164)">
<path d="M84.6623 60.03C84.6729 57.1084 84.4615 54.1901 84.0299 51.3004C83.4881 54.4654 82.6228 57.5668 81.4476 60.5559L76.7572 56.9273C78.391 54.1927 79.0761 52.247 79.8666 48.7761L84.1353 50.4064V50.5641L87.9297 49.8279C88.6142 52.9107 89.0722 56.0392 89.2999 59.1886L84.6623 60.03ZM96.9414 23.5337C96.5725 24.007 96.5725 24.007 95.6239 25.795C95.1297 26.8646 94.5664 27.901 93.9375 28.8977C94.9589 28.9173 95.9803 28.8646 96.9941 28.74C96.9414 29.9495 96.8887 31.0013 96.8887 32.7893V44.9372C96.8399 46.2002 96.8751 47.4651 96.9941 48.7235H79.5504C79.6031 47.2511 79.6558 45.8312 79.6558 44.7794V32.6315C78.6545 31.422 76.1248 29.634 74.8073 28.5822C77.8113 25.2691 82.5543 25.1114 83.1867 18.1697L89.7215 19.1689C89.5107 19.6422 89.458 19.7474 88.9837 20.9569H92.7254C93.4525 21.0245 94.1858 20.9531 94.8861 20.7465L96.9414 23.5337ZM84.6623 36.4179H86.296V34.2092H84.6623V36.4179ZM84.6623 43.3069H86.296V40.9931H84.6623V43.3069ZM87.5608 28.8977C88.0191 28.1015 88.4241 27.2758 88.7729 26.4261H86.5595C85.9271 27.6356 84.4515 27.9511 83.9245 28.8977H87.5608ZM92.7254 49.565C93.6447 52.2716 94.3323 55.0512 94.7807 57.8739L90.512 58.9783C90.3007 56.076 89.7885 53.2033 88.9837 50.4064L92.7254 49.565ZM90.3539 36.4179H91.9876V34.2092H90.3539V36.4179ZM90.3539 43.3069H91.9876V40.9931H90.3539V43.3069ZM104.741 42.4129H102.528C101.295 42.3934 100.062 42.4637 98.8386 42.6233V36.3653C100.1 36.4832 101.366 36.5359 102.633 36.523H104.741V33.9462H102.633C100.736 33.9462 99.2075 34.0514 97.89 34.1566V27.6356C99.2502 27.8387 100.627 27.9092 102.001 27.846C101.052 25.2166 99.5237 18.4852 98.0481 16.1188L105.163 16.3817C105.953 19.0111 106.111 23.6389 106.691 25.9528L103.634 27.846H107.481C109.014 24.7801 110.249 21.5752 111.171 18.2749L117.6 20.5888C116.635 23.0872 115.49 25.5126 114.174 27.846C116.388 27.846 117.126 27.846 118.232 27.6356V34.1566C116.862 34.0514 115.492 33.9462 113.595 33.9462H111.329V36.523H113.542C114.791 36.54 116.04 36.4873 117.284 36.3653V42.6233C116.026 42.4557 114.758 42.3854 113.489 42.4129H111.329V45.2527H114.122C115.688 45.2699 117.254 45.1997 118.812 45.0424V51.6159C117.308 51.4355 115.795 51.3477 114.28 51.353H111.329V54.929C111.329 57.1377 111.434 62.975 111.645 64.5L104.425 62.4491C104.636 60.8189 104.741 57.0325 104.741 54.8238V51.353H102.528C101.102 51.3497 99.6773 51.4199 98.2589 51.5633C98.9441 53.8246 99.1549 54.4031 99.5765 56.2963L95.8874 57.5584C95.4064 54.9833 94.7191 52.451 93.8321 49.9857L97.363 49.0391L97.89 50.4064V45.0424C99.3607 45.1936 100.839 45.2639 102.317 45.2527H104.741V42.4129Z" fill="white"/>
<path d="M130.617 51.7736C130.804 51.3646 130.963 50.9428 131.091 50.5115C132.222 47.3375 133.19 44.1079 133.99 40.8353H131.565C130.09 40.8353 128.456 40.9404 127.139 41.0456V34.9454C128.298 35.0505 130.037 35.1557 131.776 35.1557H135.254C135.834 32.0004 135.992 31.0538 136.308 28.6874H130.722C128.14 28.6874 128.825 28.7925 127.086 28.9503L124.346 22.7449C126.411 22.9645 128.488 23.0523 130.564 23.0078H149.062C150.98 23.0488 152.9 22.9609 154.806 22.7449V28.9503C152.899 28.7413 150.98 28.6534 149.062 28.6874H142.791C142.422 31.159 142.158 32.6841 141.684 35.1557H148.904C151.117 35.1557 152.382 35.1031 153.963 34.998C153.808 36.5179 153.737 38.0454 153.752 39.5731V51.7736H154.648C156.427 51.8199 158.206 51.732 159.971 51.5107V57.8739C158.047 57.6507 156.111 57.5453 154.174 57.5583H128.825C126.717 57.5583 123.081 57.6635 121.078 57.8739L122.975 51.5107C124.846 51.7379 126.731 51.8258 128.614 51.7736H130.617ZM147.428 51.7736L148.008 40.8353H140.472C139.471 45.1475 138.575 48.4606 137.468 51.7736H147.428Z" fill="white"/>
<path d="M197.177 44.7794H195.86V34.472H196.123C198.112 34.4347 200.101 34.5226 202.078 34.735V28.0563C200.101 28.2661 198.112 28.3539 196.123 28.3192H195.86V27.583C195.809 25.7909 195.897 23.9975 196.123 22.219H189.061C189.286 23.9977 189.374 25.7909 189.325 27.583V28.3192H178.258V27.2674C178.258 24.6906 178.311 21.4827 178.469 20.168L171.196 16.8024C171.46 18.5378 171.512 25.1639 171.512 26.8467V28.3192H170.616C168.628 28.3607 166.638 28.2729 164.661 28.0563V34.735C166.655 34.5101 168.663 34.4222 170.669 34.472H171.512V37.9429C171.512 40.3619 171.512 42.5181 171.354 44.7794H169.457C166.717 44.7794 163.238 44.6742 161.552 44.5164L163.555 51.1951C165.531 50.9653 167.521 50.8774 169.51 50.9322H170.406C170.056 51.892 169.539 52.7823 168.877 53.5616C167.718 54.9815 166.4 55.7703 163.449 57.0324C165.274 58.6472 166.822 60.5477 168.034 62.6594C171.038 61.0817 172.461 59.9248 173.989 58.0316C175.517 56.1384 176.519 53.9823 177.151 50.9322H189.325V56.0859C189.356 58.124 189.25 60.162 189.009 62.1861H196.176C195.936 60.1795 195.83 58.1591 195.86 56.1384V50.9322H197.23C198.99 50.9202 200.75 51.008 202.5 51.1951V44.5164C200.735 44.7329 198.956 44.8208 197.177 44.7794ZM184.477 37.5222C184.956 37.8679 185.352 38.3167 185.635 38.8355C185.918 39.3543 186.08 39.9299 186.11 40.5197C186.268 41.8344 185.109 40.7301 184.74 39.8886C183.844 37.6799 183.423 36.9437 184.477 37.5222ZM189.325 44.7794H186.795C188.376 42.4655 186.585 38.4162 185.847 37.5222C185.109 36.6282 182.263 34.5246 180.998 36.3652C180.877 36.6467 180.84 36.9573 180.893 37.2592C180.964 37.6051 180.982 37.9598 180.946 38.311C180.817 38.8922 180.623 39.4568 180.366 39.9938C179.997 40.5723 180.366 41.7818 180.629 42.4129C181.055 43.2773 181.605 44.0746 182.263 44.7794H177.994C178.205 42.2025 178.258 39.9412 178.258 37.3118V34.472H189.325V44.7794Z" fill="white"/>
<path d="M36.2308 0.762942L31.5404 26.3735L35.7565 25.4795L41.817 0.5L36.2308 0.762942Z" fill="white"/>
<path d="M47.9829 2.91907L38.5496 25.4269L42.871 26.0579L53.5164 4.65448L47.9829 2.91907Z" fill="white"/>
<path fill-rule="evenodd" clip-rule="evenodd" d="M37.1794 30.6857C36.9367 29.9872 36.6186 29.3172 36.2308 28.6873C30.908 31.9478 30.7499 50.9322 30.7499 50.9322H46.9289C46.9289 50.9322 46.7181 48.4605 46.1384 45.0949C44.362 45.0197 42.5971 44.7731 40.8684 44.3587L42.7129 47.5665C41.5481 48.3025 40.1667 48.6203 38.7967 48.4673C37.4266 48.3143 36.1497 47.6998 35.1768 46.7251L36.5997 44.1483L36.02 46.4096C36.02 46.4096 39.0766 49.2494 40.9738 46.9881C41.5535 46.3044 40.236 44.8845 39.8144 44.0957C35.7038 42.9914 34.0174 41.3085 34.0174 41.3085C37.3902 43.4647 43.4507 43.7276 45.8749 43.7276C44.7155 37.3644 42.4494 29.108 38.4969 28.3192C38.0867 28.5616 37.7485 28.9085 37.517 29.3244C37.2854 29.7403 37.1689 30.2101 37.1794 30.6857V30.6857ZM39.0239 34.5772C39.0857 34.267 39.2535 33.9878 39.4985 33.7871C39.7436 33.5865 40.0507 33.4768 40.3677 33.4768C40.6847 33.4768 40.9919 33.5865 41.2369 33.7871C41.482 33.9878 41.6497 34.267 41.7116 34.5772C41.7511 34.7755 41.7461 34.9801 41.6969 35.1762C41.6477 35.3724 41.5555 35.5551 41.4269 35.7114C41.2984 35.8677 41.1368 35.9936 40.9536 36.0801C40.7704 36.1665 40.5703 36.2114 40.3677 36.2114C40.1651 36.2114 39.965 36.1665 39.7819 36.0801C39.5987 35.9936 39.437 35.8677 39.3085 35.7114C39.18 35.5551 39.0878 35.3724 39.0386 35.1762C38.9893 34.9801 38.9843 34.7755 39.0239 34.5772V34.5772Z" fill="white"/>
<path fill-rule="evenodd" clip-rule="evenodd" d="M67.1131 33.1048C68.4833 30.6331 67.8509 27.9511 67.7982 27.2675C67.6833 26.3835 67.2966 25.5567 66.6915 24.901C64.8997 23.2707 62.1066 30.3702 62.1066 30.3702C59.9722 29.575 57.6128 29.6315 55.5191 30.5279C54.9921 28.4244 49.2477 24.0596 49.2477 24.0596C46.2438 26.689 46.8235 30.4753 47.9302 32.9996C47.5613 31.2642 47.9302 28.8977 48.0883 28.1089C48.2464 27.32 49.0369 25.7424 49.5639 26.9519C50.5317 29.1087 52.1298 30.9234 54.1488 32.1582C54.4123 33.3151 52.4624 35.5238 49.9328 35.1557C49.4889 35.1295 49.0646 34.9638 48.7207 34.6824C48.7859 34.7809 48.839 34.8868 48.8788 34.9979C47.7721 39.9938 48.9842 44.832 50.4071 47.1458C55.2556 54.8763 65.0051 52.3521 65.0051 52.3521C66.8496 51.9314 69.063 50.0908 69.3265 48.9864C68.3204 49.5381 67.2048 49.8613 66.0591 49.933C63.7403 50.1434 62.6863 49.2494 62.4755 47.4614C62.2647 45.6734 63.5822 44.3587 65.901 44.1483C68.2198 43.938 68.6414 43.9906 69.9589 44.6216C69.9589 44.6216 71.171 37.7851 67.1131 33.1048ZM66.6388 38.4162C66.6388 38.229 66.6944 38.046 66.7987 37.8903C66.9029 37.7346 67.0511 37.6133 67.2244 37.5417C67.3977 37.47 67.5885 37.4513 67.7725 37.4878C67.9565 37.5243 68.1255 37.6145 68.2582 37.7468C68.3908 37.8792 68.4812 38.0479 68.5178 38.2315C68.5544 38.4151 68.5356 38.6055 68.4638 38.7784C68.392 38.9514 68.2704 39.0992 68.1144 39.2032C67.9584 39.3073 67.775 39.3628 67.5874 39.3628C67.3358 39.3628 67.0945 39.263 66.9166 39.0855C66.7387 38.908 66.6388 38.6672 66.6388 38.4162V38.4162ZM57.6271 39.1524C57.6115 38.9875 57.6484 38.8219 57.7325 38.6791V38.574C57.8261 38.4226 57.9585 38.299 58.116 38.2158C58.2734 38.1326 58.4503 38.0929 58.6284 38.1007C58.8368 38.1007 59.0406 38.1623 59.2139 38.2779C59.3873 38.3935 59.5224 38.5577 59.6021 38.7499C59.6819 38.9421 59.7028 39.1536 59.6621 39.3576C59.6215 39.5616 59.5211 39.749 59.3737 39.8961C59.2263 40.0432 59.0384 40.1434 58.834 40.184C58.6295 40.2246 58.4176 40.2037 58.225 40.1241C58.0324 40.0445 57.8678 39.9097 57.752 39.7368C57.6362 39.5638 57.5744 39.3604 57.5744 39.1524H57.6271ZM65.7429 47.4614C65.4267 45.9363 64.4781 46.357 64.4781 46.357C64.3769 46.7701 64.3589 47.1991 64.4254 47.6191C64.4781 48.4606 66.0064 49.039 65.7429 47.4614ZM68.4306 45.726C68.4306 45.726 67.3239 46.357 67.7982 47.3036C68.2725 48.2502 69.9589 47.1459 68.4306 45.726Z" fill="white"/>
<path fill-rule="evenodd" clip-rule="evenodd" d="M29.9594 33.1574C26.8319 31.3087 23.4093 30.0102 19.841 29.3184C19.4194 26.8994 18.0492 24.3225 14.3602 23.9018C14.2975 23.9533 14.2463 24.0174 14.21 24.0898C14.1737 24.1623 14.153 24.2416 14.1494 24.3225C20.8423 26.1105 18.1546 34.8402 18.1546 34.8402C14.6764 37.5748 13.3589 33.4729 13.3589 33.4729C13.3589 33.4729 14.571 30.4754 14.571 28.6348L12.7792 28.5296C12.1468 27.5304 12.1468 25.9002 10.6184 24.3225C6.29703 19.9051 3.13501 22.1138 3.13501 22.1138C7.87803 24.7432 8.03614 30.0547 8.03614 30.0547C7.99407 30.2734 7.92319 30.4856 7.82533 30.6857L1.2378 31.2642C1.2378 31.2642 3.39851 34.4721 5.45382 33.9988C3.60931 36.9963 3.18771 39.5732 4.03092 41.6767L3.92552 41.9922C4.39982 41.256 5.29572 39.8361 4.71602 38.4688C4.71602 38.4688 7.08753 38.1007 7.77263 34.8928C8.45774 31.6849 10.9873 31.0013 10.9873 32.316C10.9397 33.194 10.6274 34.0371 10.0914 34.735C10.0914 34.735 6.56053 39.3102 9.19554 41.6241C8.03081 42.1142 7.05258 42.9614 6.40243 44.0432C5.77002 44.9897 4.29442 47.4614 2.87151 45.3053C2.67517 45.8444 2.44639 46.3713 2.18641 46.8829C2.44991 47.7243 2.92421 48.5658 4.66332 48.8287C4.66332 48.8287 6.56053 48.8287 7.24563 49.6175C7.93073 50.4063 6.98213 51.6159 6.98213 51.6159C6.98213 51.6159 7.08753 49.9331 6.19163 49.8279C3.87282 49.5649 2.23911 49.4072 1.554 47.9347C0.763501 47.7769 0.5 48.6709 0.5 49.0391C0.5 49.4072 0.816203 55.0867 8.19424 52.4047C15.5723 49.7227 18.3654 47.0407 20.8423 48.3028C23.3192 49.5649 25.7961 50.4063 27.1136 50.9322C26.6393 45.1475 29.0108 36.4178 29.9594 33.1574ZM13.517 40.5723C13.4649 40.8986 13.2868 41.1915 13.0207 41.3881C12.7547 41.5848 12.422 41.6695 12.0941 41.6241C11.9291 41.6052 11.7698 41.5527 11.626 41.4698C11.4823 41.387 11.3571 41.2755 11.2583 41.1424C11.1594 41.0093 11.0891 40.8573 11.0515 40.6959C11.014 40.5345 11.0101 40.3672 11.04 40.2042C11.127 39.913 11.3163 39.6629 11.5732 39.4998C11.8301 39.3367 12.1373 39.2715 12.4385 39.3163C12.7397 39.3611 13.0145 39.5127 13.2126 39.7435C13.4108 39.9742 13.5188 40.2685 13.517 40.5723Z" fill="white"/>
<path d="M13.9386 54.5082H17.206C17.7277 54.4957 18.2469 54.585 18.7343 54.7712C19.1202 54.9368 19.4628 55.1887 19.7356 55.5074C19.9736 55.8616 20.1516 56.2525 20.2626 56.6644C20.3701 57.1121 20.4232 57.5712 20.4207 58.0317C20.449 58.6179 20.3777 59.2046 20.2099 59.7671C20.0388 60.1644 19.7877 60.5224 19.4721 60.8188C19.1834 61.0806 18.842 61.2778 18.4708 61.3973L17.206 61.5551H13.9386V54.5082ZM16.0993 56.1385V59.9774H16.679C17.003 59.9948 17.3268 59.941 17.6276 59.8197C17.8479 59.7121 18.0178 59.5237 18.1019 59.2938C18.2247 58.9028 18.2782 58.4935 18.26 58.0842C18.2995 57.5333 18.1709 56.9832 17.8911 56.5066C17.7254 56.3652 17.5322 56.2594 17.3236 56.1961C17.115 56.1327 16.8955 56.1131 16.679 56.1385H16.0993Z" fill="white"/>
<path d="M21.2639 59.0308C21.2546 58.6697 21.3201 58.3105 21.4561 57.9757C21.5921 57.641 21.7958 57.3378 22.0544 57.085C22.6576 56.5796 23.4281 56.3171 24.2151 56.3488C24.6432 56.324 25.0716 56.391 25.4715 56.5452C25.8715 56.6994 26.2337 56.9373 26.5339 57.2428C26.972 57.7657 27.1987 58.433 27.1694 59.1139C27.1402 59.7949 26.8572 60.4404 26.3758 60.924C25.7957 61.4033 25.0735 61.6785 24.3209 61.707C23.5684 61.7356 22.8273 61.5158 22.2125 61.0817C21.9056 60.8369 21.6601 60.524 21.4955 60.168C21.3308 59.812 21.2515 59.4227 21.2639 59.0308V59.0308ZM23.2138 59.0308C23.195 59.2101 23.2134 59.3913 23.2678 59.5632C23.3222 59.735 23.4115 59.8939 23.53 60.03C23.6141 60.1295 23.719 60.2096 23.8373 60.2645C23.9557 60.3194 24.0846 60.3479 24.2151 60.3479C24.3456 60.3479 24.4745 60.3194 24.5929 60.2645C24.7112 60.2096 24.8161 60.1295 24.9002 60.03C25.071 59.7245 25.1606 59.3805 25.1606 59.0308C25.1606 58.681 25.071 58.3371 24.9002 58.0316C24.8161 57.932 24.7112 57.852 24.5929 57.797C24.4745 57.7421 24.3456 57.7137 24.2151 57.7137C24.0846 57.7137 23.9557 57.7421 23.8373 57.797C23.719 57.852 23.6141 57.932 23.53 58.0316C23.4115 58.1676 23.3222 58.3265 23.2678 58.4984C23.2134 58.6703 23.195 58.8515 23.2138 59.0308Z" fill="white"/>
<path d="M28.1676 56.454H29.9594V57.2954C30.1994 57.0068 30.4841 56.7582 30.8026 56.5592C31.1125 56.4037 31.4576 56.3312 31.8039 56.3488C32.0444 56.3323 32.2857 56.3658 32.5125 56.4473C32.7394 56.5288 32.9467 56.6564 33.1215 56.8221C33.4293 57.269 33.5778 57.8061 33.5431 58.3472V61.5551H31.5931V58.7679C31.6163 58.5289 31.5608 58.2889 31.435 58.0842C31.3674 58.0136 31.2853 57.9583 31.1944 57.922C31.1035 57.8858 31.0059 57.8693 30.908 57.8739C30.7979 57.8717 30.6886 57.8942 30.5883 57.9397C30.488 57.9852 30.3992 58.0526 30.3283 58.1368C30.1561 58.4401 30.0824 58.7892 30.1175 59.136V61.5551H28.1676V56.454Z" fill="white"/>
<path d="M34.9133 54.5082H37.7591L38.8658 58.8204L39.9725 54.5082H42.8183V61.555H41.0265V56.191L39.6563 61.555H38.0753L36.6524 56.191V61.555H34.9133V54.5082Z" fill="white"/>
<path d="M43.925 59.0308C43.9157 58.6697 43.9812 58.3106 44.1172 57.9758C44.2532 57.641 44.4569 57.3378 44.7155 57.0851C45.2972 56.5784 46.0521 56.3148 46.8235 56.3488C47.2519 56.3206 47.6814 56.3859 48.0818 56.5403C48.4823 56.6947 48.8442 56.9345 49.1423 57.2428C49.5804 57.7657 49.8071 58.433 49.7778 59.114C49.7486 59.7949 49.4656 60.4404 48.9842 60.924C48.7009 61.2011 48.3616 61.4147 47.989 61.5507C47.6165 61.6868 47.2191 61.742 46.8235 61.7128C46.1034 61.7363 45.3969 61.5136 44.8209 61.0818C44.5324 60.8244 44.303 60.5079 44.1484 60.154C43.9938 59.8 43.9176 59.4169 43.925 59.0308V59.0308ZM45.8749 59.0308C45.8518 59.3836 45.9443 59.7343 46.1384 60.03C46.2308 60.1332 46.3447 60.215 46.4722 60.2695C46.5997 60.324 46.7376 60.35 46.8762 60.3455C47.006 60.3425 47.1337 60.3129 47.2516 60.2587C47.3694 60.2044 47.4748 60.1266 47.5613 60.03C47.7321 59.7246 47.8217 59.3806 47.8217 59.0308C47.8217 58.6811 47.7321 58.3371 47.5613 58.0317C47.4748 57.9351 47.3694 57.8573 47.2516 57.803C47.1337 57.7487 47.006 57.7192 46.8762 57.7161C46.7376 57.7117 46.5997 57.7377 46.4722 57.7922C46.3447 57.8467 46.2308 57.9284 46.1384 58.0317C45.9443 58.3274 45.8518 58.6781 45.8749 59.0308V59.0308Z" fill="white"/>
<path d="M50.776 56.454H52.6205V57.2954C52.8478 56.9946 53.1349 56.744 53.4637 56.5591C53.7719 56.3988 54.1183 56.3261 54.465 56.3488C54.6972 56.3364 54.9294 56.3721 55.147 56.4536C55.3647 56.535 55.5631 56.6605 55.7299 56.8221C56.0827 57.2485 56.2531 57.7963 56.2042 58.3472V61.555H54.2543V58.7679C54.2662 58.5224 54.1916 58.2805 54.0434 58.0842C53.9893 58.0113 53.9172 57.9536 53.834 57.9167C53.7509 57.8799 53.6597 57.8651 53.5691 57.8739C53.4584 57.8676 53.3478 57.8882 53.2468 57.934C53.1458 57.9798 53.0575 58.0494 52.9894 58.1368C52.7954 58.4325 52.7029 58.7832 52.7259 59.136V61.555H50.776V56.454Z" fill="white"/>
<path d="M57.2054 59.0308C57.1962 58.6697 57.2616 58.3106 57.3976 57.9758C57.5336 57.641 57.7373 57.3378 57.9959 57.0851C58.5777 56.5784 59.3326 56.3148 60.104 56.3488C60.5324 56.3206 60.9618 56.3859 61.3623 56.5403C61.7628 56.6947 62.1247 56.9345 62.4228 57.2428C62.8609 57.7657 63.0875 58.433 63.0583 59.114C63.029 59.7949 62.746 60.4404 62.2647 60.924C61.9794 61.1983 61.6398 61.4102 61.2678 61.546C60.8957 61.6819 60.4993 61.7387 60.104 61.7128C59.3839 61.7363 58.6773 61.5136 58.1013 61.0818C57.8041 60.8316 57.5686 60.5165 57.4132 60.1608C57.2579 59.8051 57.1868 59.4184 57.2054 59.0308V59.0308ZM59.1553 59.0308C59.1323 59.3836 59.2248 59.7343 59.4188 60.03C59.5053 60.1266 59.6108 60.2044 59.7286 60.2587C59.8465 60.3129 59.9742 60.3425 60.104 60.3455C60.2426 60.35 60.3805 60.324 60.508 60.2695C60.6354 60.215 60.7494 60.1332 60.8418 60.03C61.0125 59.7246 61.1022 59.3806 61.1022 59.0308C61.1022 58.6811 61.0125 58.3371 60.8418 58.0317C60.7553 57.9351 60.6498 57.8573 60.532 57.803C60.4142 57.7487 60.2864 57.7192 60.1567 57.7161C60.018 57.7117 59.8801 57.7377 59.7527 57.7922C59.6252 57.8467 59.5112 57.9284 59.4188 58.0317C59.2248 58.3274 59.1323 58.6781 59.1553 59.0308V59.0308Z" fill="white"/>
</g>
<defs>
<clipPath id="clip0_1_164">
<rect width="202" height="64" fill="white" transform="translate(0.5 0.5)"/>
</clipPath>
</defs>
</svg>
