<svg width="202" height="64" viewBox="0 0 202 64" fill="none" xmlns="http://www.w3.org/2000/svg">
<g clip-path="url(#clip0_1_23)">
<path d="M84.1623 59.53C84.1729 56.6084 83.9615 53.6901 83.5299 50.8004C82.9881 53.9654 82.1228 57.0668 80.9476 60.0559L76.2572 56.4273C77.891 53.6927 78.5761 51.747 79.3666 48.2761L83.6353 49.9064V50.0641L87.4297 49.3279C88.1142 52.4107 88.5722 55.5392 88.7999 58.6886L84.1623 59.53ZM96.4414 23.0337C96.0725 23.507 96.0725 23.507 95.1239 25.295C94.6297 26.3646 94.0664 27.401 93.4375 28.3977C94.4589 28.4173 95.4803 28.3646 96.4941 28.24C96.4414 29.4495 96.3887 30.5013 96.3887 32.2893V44.4372C96.3399 45.7002 96.3751 46.9651 96.4941 48.2235H79.0504C79.1031 46.7511 79.1558 45.3312 79.1558 44.2794V32.1315C78.1545 30.922 75.6248 29.134 74.3073 28.0822C77.3113 24.7691 82.0543 24.6114 82.6867 17.6697L89.2215 18.6689C89.0107 19.1422 88.958 19.2474 88.4837 20.4569H92.2254C92.9525 20.5245 93.6858 20.4531 94.3861 20.2465L96.4414 23.0337ZM84.1623 35.9179H85.796V33.7092H84.1623V35.9179ZM84.1623 42.8069H85.796V40.4931H84.1623V42.8069ZM87.0608 28.3977C87.5191 27.6015 87.9241 26.7758 88.2729 25.9261H86.0595C85.4271 27.1356 83.9515 27.4511 83.4245 28.3977H87.0608ZM92.2254 49.065C93.1447 51.7716 93.8323 54.5512 94.2807 57.3739L90.012 58.4783C89.8007 55.576 89.2885 52.7033 88.4837 49.9064L92.2254 49.065ZM89.8539 35.9179H91.4876V33.7092H89.8539V35.9179ZM89.8539 42.8069H91.4876V40.4931H89.8539V42.8069ZM104.241 41.9129H102.028C100.795 41.8934 99.5616 41.9637 98.3386 42.1233V35.8653C99.5999 35.9832 100.866 36.0359 102.133 36.023H104.241V33.4462H102.133C100.236 33.4462 98.7075 33.5514 97.39 33.6566V27.1356C98.7502 27.3387 100.127 27.4092 101.501 27.346C100.552 24.7166 99.0237 17.9852 97.5481 15.6188L104.663 15.8817C105.453 18.5111 105.611 23.1389 106.191 25.4528L103.134 27.346H106.981C108.514 24.2801 109.749 21.0752 110.671 17.7749L117.1 20.0888C116.135 22.5872 114.99 25.0126 113.674 27.346C115.888 27.346 116.626 27.346 117.732 27.1356V33.6566C116.362 33.5514 114.992 33.4462 113.095 33.4462H110.829V36.023H113.042C114.291 36.04 115.54 35.9873 116.784 35.8653V42.1233C115.526 41.9557 114.258 41.8854 112.989 41.9129H110.829V44.7527H113.622C115.188 44.7699 116.754 44.6997 118.312 44.5424V51.1159C116.808 50.9355 115.295 50.8477 113.78 50.853H110.829V54.429C110.829 56.6377 110.934 62.475 111.145 64L103.925 61.9491C104.136 60.3189 104.241 56.5325 104.241 54.3238V50.853H102.028C100.602 50.8497 99.1773 50.9199 97.7589 51.0633C98.4441 53.3246 98.6549 53.9031 99.0765 55.7963L95.3874 57.0584C94.9064 54.4833 94.2191 51.951 93.3321 49.4857L96.863 48.5391L97.39 49.9064V44.5424C98.8607 44.6936 100.339 44.7639 101.817 44.7527H104.241V41.9129Z" fill="#E7741D"/>
<path d="M130.117 51.2736C130.304 50.8646 130.463 50.4428 130.591 50.0115C131.722 46.8375 132.69 43.6079 133.49 40.3353H131.065C129.59 40.3353 127.956 40.4404 126.639 40.5456V34.4454C127.798 34.5505 129.537 34.6557 131.276 34.6557H134.754C135.334 31.5004 135.492 30.5538 135.808 28.1874H130.222C127.64 28.1874 128.325 28.2925 126.586 28.4503L123.846 22.2449C125.911 22.4645 127.988 22.5523 130.064 22.5078H148.562C150.48 22.5488 152.4 22.4609 154.306 22.2449V28.4503C152.399 28.2413 150.48 28.1534 148.562 28.1874H142.291C141.922 30.659 141.658 32.1841 141.184 34.6557H148.404C150.617 34.6557 151.882 34.6031 153.463 34.498C153.308 36.0179 153.237 37.5454 153.252 39.0731V51.2736H154.148C155.927 51.3199 157.706 51.232 159.471 51.0107V57.3739C157.547 57.1507 155.611 57.0453 153.674 57.0583H128.325C126.217 57.0583 122.581 57.1635 120.578 57.3739L122.475 51.0107C124.346 51.2379 126.231 51.3258 128.114 51.2736H130.117ZM146.928 51.2736L147.508 40.3353H139.972C138.971 44.6475 138.075 47.9606 136.968 51.2736H146.928Z" fill="#C40E18"/>
<path d="M196.677 44.2794H195.36V33.972H195.623C197.612 33.9347 199.601 34.0226 201.578 34.235V27.5563C199.601 27.7661 197.612 27.8539 195.623 27.8192H195.36V27.083C195.309 25.2909 195.397 23.4975 195.623 21.719H188.561C188.786 23.4977 188.874 25.2909 188.825 27.083V27.8192H177.758V26.7674C177.758 24.1906 177.811 20.9827 177.969 19.668L170.696 16.3024C170.96 18.0378 171.012 24.6639 171.012 26.3467V27.8192H170.116C168.128 27.8607 166.138 27.7729 164.161 27.5563V34.235C166.155 34.0101 168.163 33.9222 170.169 33.972H171.012V37.4429C171.012 39.8619 171.012 42.0181 170.854 44.2794H168.957C166.217 44.2794 162.738 44.1742 161.052 44.0164L163.055 50.6951C165.031 50.4653 167.021 50.3774 169.01 50.4322H169.906C169.556 51.392 169.039 52.2823 168.377 53.0616C167.218 54.4815 165.9 55.2703 162.949 56.5324C164.774 58.1472 166.322 60.0477 167.534 62.1594C170.538 60.5817 171.961 59.4248 173.489 57.5316C175.017 55.6384 176.019 53.4823 176.651 50.4322H188.825V55.5859C188.856 57.624 188.75 59.662 188.509 61.6861H195.676C195.436 59.6795 195.33 57.6591 195.36 55.6384V50.4322H196.73C198.49 50.4202 200.25 50.508 202 50.6951V44.0164C200.235 44.2329 198.456 44.3208 196.677 44.2794ZM183.977 37.0222C184.456 37.3679 184.852 37.8167 185.135 38.3355C185.418 38.8543 185.58 39.4299 185.61 40.0197C185.768 41.3344 184.609 40.2301 184.24 39.3886C183.344 37.1799 182.923 36.4437 183.977 37.0222ZM188.825 44.2794H186.295C187.876 41.9655 186.085 37.9162 185.347 37.0222C184.609 36.1282 181.763 34.0246 180.498 35.8652C180.377 36.1467 180.34 36.4573 180.393 36.7592C180.464 37.1051 180.482 37.4598 180.446 37.811C180.317 38.3922 180.123 38.9568 179.866 39.4938C179.497 40.0723 179.866 41.2818 180.129 41.9129C180.555 42.7773 181.105 43.5746 181.763 44.2794H177.494C177.705 41.7025 177.758 39.4412 177.758 36.8118V33.972H188.825V44.2794Z" fill="#691B20"/>
<path d="M35.7308 0.262942L31.0405 25.8735L35.2565 24.9795L41.317 0L35.7308 0.262942Z" fill="#691B20"/>
<path d="M47.4829 2.41907L38.0496 24.9269L42.371 25.5579L53.0164 4.15448L47.4829 2.41907Z" fill="#691B20"/>
<path fill-rule="evenodd" clip-rule="evenodd" d="M36.6794 30.1857C36.4367 29.4872 36.1186 28.8172 35.7308 28.1873C30.408 31.4478 30.2499 50.4322 30.2499 50.4322H46.4289C46.4289 50.4322 46.2181 47.9605 45.6384 44.5949C43.862 44.5197 42.0971 44.2731 40.3684 43.8587L42.2129 47.0665C41.0481 47.8025 39.6667 48.1203 38.2967 47.9673C36.9266 47.8143 35.6497 47.1998 34.6768 46.2251L36.0997 43.6483L35.52 45.9096C35.52 45.9096 38.5766 48.7494 40.4738 46.4881C41.0535 45.8044 39.736 44.3845 39.3144 43.5957C35.2038 42.4914 33.5174 40.8085 33.5174 40.8085C36.8902 42.9647 42.9507 43.2276 45.3749 43.2276C44.2155 36.8644 41.9494 28.608 37.9969 27.8192C37.5867 28.0616 37.2485 28.4085 37.017 28.8244C36.7854 29.2403 36.6689 29.7101 36.6794 30.1857V30.1857ZM38.5239 34.0772C38.5857 33.767 38.7535 33.4878 38.9985 33.2871C39.2436 33.0865 39.5507 32.9768 39.8677 32.9768C40.1847 32.9768 40.4919 33.0865 40.7369 33.2871C40.982 33.4878 41.1497 33.767 41.2116 34.0772C41.2511 34.2755 41.2461 34.4801 41.1969 34.6762C41.1477 34.8724 41.0555 35.0551 40.9269 35.2114C40.7984 35.3677 40.6368 35.4936 40.4536 35.5801C40.2704 35.6665 40.0703 35.7114 39.8677 35.7114C39.6651 35.7114 39.465 35.6665 39.2819 35.5801C39.0987 35.4936 38.937 35.3677 38.8085 35.2114C38.68 35.0551 38.5878 34.8724 38.5386 34.6762C38.4893 34.4801 38.4843 34.2755 38.5239 34.0772V34.0772Z" fill="#C40E18"/>
<path fill-rule="evenodd" clip-rule="evenodd" d="M66.6131 32.6048C67.9833 30.1331 67.3509 27.4511 67.2982 26.7675C67.1833 25.8835 66.7966 25.0567 66.1915 24.401C64.3997 22.7707 61.6066 29.8702 61.6066 29.8702C59.4722 29.075 57.1128 29.1315 55.0191 30.0279C54.4921 27.9244 48.7477 23.5596 48.7477 23.5596C45.7438 26.189 46.3235 29.9753 47.4302 32.4996C47.0613 30.7642 47.4302 28.3977 47.5883 27.6089C47.7464 26.82 48.5369 25.2424 49.0639 26.4519C50.0317 28.6087 51.6298 30.4234 53.6488 31.6582C53.9123 32.8151 51.9624 35.0238 49.4328 34.6557C48.9889 34.6295 48.5646 34.4638 48.2207 34.1824C48.2859 34.2809 48.339 34.3868 48.3788 34.4979C47.2721 39.4938 48.4842 44.332 49.9071 46.6458C54.7556 54.3763 64.5051 51.8521 64.5051 51.8521C66.3496 51.4314 68.563 49.5908 68.8265 48.4864C67.8204 49.0381 66.7048 49.3613 65.5591 49.433C63.2403 49.6434 62.1863 48.7494 61.9755 46.9614C61.7647 45.1734 63.0822 43.8587 65.401 43.6483C67.7198 43.438 68.1414 43.4906 69.4589 44.1216C69.4589 44.1216 70.671 37.2851 66.6131 32.6048ZM66.1388 37.9162C66.1388 37.729 66.1944 37.546 66.2987 37.3903C66.4029 37.2346 66.5511 37.1133 66.7244 37.0417C66.8977 36.97 67.0885 36.9513 67.2725 36.9878C67.4565 37.0243 67.6255 37.1145 67.7582 37.2468C67.8908 37.3792 67.9812 37.5479 68.0178 37.7315C68.0544 37.9151 68.0356 38.1055 67.9638 38.2784C67.892 38.4514 67.7704 38.5992 67.6144 38.7032C67.4584 38.8073 67.275 38.8628 67.0874 38.8628C66.8358 38.8628 66.5945 38.763 66.4166 38.5855C66.2387 38.408 66.1388 38.1672 66.1388 37.9162V37.9162ZM57.1271 38.6524C57.1115 38.4875 57.1484 38.3219 57.2325 38.1791V38.074C57.3261 37.9226 57.4585 37.799 57.616 37.7158C57.7734 37.6326 57.9503 37.5929 58.1284 37.6007C58.3368 37.6007 58.5406 37.6623 58.7139 37.7779C58.8873 37.8935 59.0224 38.0577 59.1021 38.2499C59.1819 38.4421 59.2028 38.6536 59.1621 38.8576C59.1215 39.0616 59.0211 39.249 58.8737 39.3961C58.7263 39.5432 58.5384 39.6434 58.334 39.684C58.1295 39.7246 57.9176 39.7037 57.725 39.6241C57.5324 39.5445 57.3678 39.4097 57.252 39.2368C57.1362 39.0638 57.0744 38.8604 57.0744 38.6524H57.1271ZM65.2429 46.9614C64.9267 45.4363 63.9781 45.857 63.9781 45.857C63.8769 46.2701 63.8589 46.6991 63.9254 47.1191C63.9781 47.9606 65.5064 48.539 65.2429 46.9614ZM67.9306 45.226C67.9306 45.226 66.8239 45.857 67.2982 46.8036C67.7725 47.7502 69.4589 46.6459 67.9306 45.226Z" fill="#E7741D"/>
<path fill-rule="evenodd" clip-rule="evenodd" d="M29.4594 32.6574C26.3319 30.8087 22.9093 29.5102 19.341 28.8184C18.9194 26.3994 17.5492 23.8225 13.8602 23.4018C13.7975 23.4533 13.7463 23.5174 13.71 23.5898C13.6737 23.6623 13.653 23.7416 13.6494 23.8225C20.3423 25.6105 17.6546 34.3402 17.6546 34.3402C14.1764 37.0748 12.8589 32.9729 12.8589 32.9729C12.8589 32.9729 14.071 29.9754 14.071 28.1348L12.2792 28.0296C11.6468 27.0304 11.6468 25.4002 10.1184 23.8225C5.79703 19.4051 2.63501 21.6138 2.63501 21.6138C7.37803 24.2432 7.53614 29.5547 7.53614 29.5547C7.49407 29.7734 7.42319 29.9856 7.32533 30.1857L0.737804 30.7642C0.737804 30.7642 2.89851 33.9721 4.95382 33.4988C3.10931 36.4963 2.68771 39.0732 3.53092 41.1767L3.42552 41.4922C3.89982 40.756 4.79572 39.3361 4.21602 37.9688C4.21602 37.9688 6.58753 37.6007 7.27263 34.3928C7.95774 31.1849 10.4873 30.5013 10.4873 31.816C10.4397 32.694 10.1274 33.5371 9.59144 34.235C9.59144 34.235 6.06053 38.8102 8.69554 41.1241C7.53081 41.6142 6.55258 42.4614 5.90243 43.5432C5.27002 44.4897 3.79442 46.9614 2.37151 44.8053C2.17517 45.3444 1.94639 45.8713 1.68641 46.3829C1.94991 47.2243 2.42421 48.0658 4.16332 48.3287C4.16332 48.3287 6.06053 48.3287 6.74563 49.1175C7.43073 49.9063 6.48213 51.1159 6.48213 51.1159C6.48213 51.1159 6.58753 49.4331 5.69163 49.3279C3.37282 49.0649 1.73911 48.9072 1.054 47.4347C0.263501 47.2769 0 48.1709 0 48.5391C0 48.9072 0.316203 54.5867 7.69424 51.9047C15.0723 49.2227 17.8654 46.5407 20.3423 47.8028C22.8192 49.0649 25.2961 49.9063 26.6136 50.4322C26.1393 44.6475 28.5108 35.9178 29.4594 32.6574ZM13.017 40.0723C12.9649 40.3986 12.7868 40.6915 12.5207 40.8881C12.2547 41.0848 11.922 41.1695 11.5941 41.1241C11.4291 41.1052 11.2698 41.0527 11.126 40.9698C10.9823 40.887 10.8571 40.7755 10.7583 40.6424C10.6594 40.5093 10.5891 40.3573 10.5515 40.1959C10.514 40.0345 10.5101 39.8672 10.54 39.7042C10.627 39.413 10.8163 39.1629 11.0732 38.9998C11.3301 38.8367 11.6373 38.7715 11.9385 38.8163C12.2397 38.8611 12.5145 39.0127 12.7126 39.2435C12.9108 39.4742 13.0188 39.7685 13.017 40.0723Z" fill="#691B20"/>
<path d="M13.4385 54.0082H16.706C17.2277 53.9957 17.7469 54.085 18.2343 54.2712C18.6202 54.4368 18.9628 54.6887 19.2356 55.0074C19.4736 55.3616 19.6516 55.7525 19.7626 56.1644C19.8701 56.6121 19.9232 57.0712 19.9207 57.5317C19.9489 58.1179 19.8777 58.7046 19.7099 59.2671C19.5388 59.6644 19.2876 60.0224 18.9721 60.3188C18.6834 60.5806 18.342 60.7778 17.9708 60.8973L16.706 61.0551H13.4385V54.0082ZM15.5992 55.6385V59.4774H16.179C16.5029 59.4948 16.8268 59.441 17.1276 59.3197C17.3478 59.2121 17.5178 59.0237 17.6019 58.7938C17.7246 58.4028 17.7781 57.9935 17.76 57.5842C17.7995 57.0333 17.6709 56.4832 17.3911 56.0066C17.2254 55.8652 17.0322 55.7594 16.8236 55.6961C16.615 55.6327 16.3955 55.6131 16.179 55.6385H15.5992Z" fill="#691B20"/>
<path d="M20.7639 58.5308C20.7546 58.1697 20.8201 57.8105 20.9561 57.4757C21.0921 57.141 21.2958 56.8378 21.5544 56.585C22.1576 56.0796 22.9281 55.8171 23.7151 55.8488C24.1432 55.824 24.5716 55.891 24.9715 56.0452C25.3715 56.1994 25.7337 56.4373 26.0339 56.7428C26.472 57.2657 26.6987 57.933 26.6694 58.6139C26.6402 59.2949 26.3572 59.9404 25.8758 60.424C25.2957 60.9033 24.5735 61.1785 23.8209 61.207C23.0684 61.2356 22.3273 61.0158 21.7125 60.5817C21.4056 60.3369 21.1601 60.024 20.9955 59.668C20.8308 59.312 20.7515 58.9227 20.7639 58.5308V58.5308ZM22.7138 58.5308C22.695 58.7101 22.7134 58.8913 22.7678 59.0632C22.8222 59.235 22.9115 59.3939 23.03 59.53C23.1141 59.6295 23.219 59.7096 23.3373 59.7645C23.4557 59.8194 23.5846 59.8479 23.7151 59.8479C23.8456 59.8479 23.9745 59.8194 24.0929 59.7645C24.2112 59.7096 24.3161 59.6295 24.4002 59.53C24.571 59.2245 24.6606 58.8805 24.6606 58.5308C24.6606 58.181 24.571 57.8371 24.4002 57.5316C24.3161 57.432 24.2112 57.352 24.0929 57.297C23.9745 57.2421 23.8456 57.2137 23.7151 57.2137C23.5846 57.2137 23.4557 57.2421 23.3373 57.297C23.219 57.352 23.1141 57.432 23.03 57.5316C22.9115 57.6676 22.8222 57.8265 22.7678 57.9984C22.7134 58.1703 22.695 58.3515 22.7138 58.5308Z" fill="#691B20"/>
<path d="M27.6676 55.954H29.4594V56.7954C29.6994 56.5068 29.9841 56.2582 30.3026 56.0592C30.6125 55.9037 30.9575 55.8312 31.3039 55.8488C31.5444 55.8323 31.7857 55.8658 32.0125 55.9473C32.2393 56.0288 32.4467 56.1564 32.6214 56.3221C32.9293 56.769 33.0778 57.3061 33.043 57.8472V61.0551H31.0931V58.2679C31.1163 58.0289 31.0608 57.7889 30.935 57.5842C30.8673 57.5136 30.7853 57.4583 30.6944 57.422C30.6035 57.3858 30.5058 57.3693 30.408 57.3739C30.2978 57.3717 30.1886 57.3942 30.0883 57.4397C29.988 57.4852 29.8991 57.5526 29.8283 57.6368C29.656 57.9401 29.5824 58.2892 29.6175 58.636V61.0551H27.6676V55.954Z" fill="#691B20"/>
<path d="M34.4133 54.0082H37.2591L38.3658 58.3204L39.4725 54.0082H42.3183V61.055H40.5265V55.691L39.1563 61.055H37.5753L36.1524 55.691V61.055H34.4133V54.0082Z" fill="#691B20"/>
<path d="M43.425 58.5308C43.4157 58.1697 43.4812 57.8106 43.6172 57.4758C43.7532 57.141 43.9569 56.8378 44.2155 56.5851C44.7972 56.0784 45.5521 55.8148 46.3235 55.8488C46.7519 55.8206 47.1814 55.8859 47.5818 56.0403C47.9823 56.1947 48.3442 56.4345 48.6423 56.7428C49.0804 57.2657 49.3071 57.933 49.2778 58.614C49.2486 59.2949 48.9656 59.9404 48.4842 60.424C48.2009 60.7011 47.8616 60.9147 47.489 61.0507C47.1165 61.1868 46.7191 61.242 46.3235 61.2128C45.6034 61.2363 44.8969 61.0136 44.3209 60.5818C44.0324 60.3244 43.803 60.0079 43.6484 59.654C43.4938 59.3 43.4176 58.9169 43.425 58.5308V58.5308ZM45.3749 58.5308C45.3518 58.8836 45.4443 59.2343 45.6384 59.53C45.7308 59.6332 45.8447 59.715 45.9722 59.7695C46.0997 59.824 46.2376 59.85 46.3762 59.8455C46.506 59.8425 46.6337 59.8129 46.7516 59.7587C46.8694 59.7044 46.9748 59.6266 47.0613 59.53C47.2321 59.2246 47.3217 58.8806 47.3217 58.5308C47.3217 58.1811 47.2321 57.8371 47.0613 57.5317C46.9748 57.4351 46.8694 57.3573 46.7516 57.303C46.6337 57.2487 46.506 57.2192 46.3762 57.2161C46.2376 57.2117 46.0997 57.2377 45.9722 57.2922C45.8447 57.3467 45.7308 57.4284 45.6384 57.5317C45.4443 57.8274 45.3518 58.1781 45.3749 58.5308V58.5308Z" fill="#691B20"/>
<path d="M50.276 55.954H52.1205V56.7954C52.3478 56.4946 52.6349 56.244 52.9637 56.0591C53.2719 55.8988 53.6183 55.8261 53.965 55.8488C54.1972 55.8364 54.4294 55.8721 54.647 55.9536C54.8647 56.035 55.0631 56.1605 55.2299 56.3221C55.5827 56.7485 55.7531 57.2963 55.7042 57.8472V61.055H53.7543V58.2679C53.7662 58.0224 53.6916 57.7805 53.5434 57.5842C53.4893 57.5113 53.4172 57.4536 53.334 57.4167C53.2509 57.3799 53.1597 57.3651 53.0691 57.3739C52.9584 57.3676 52.8478 57.3882 52.7468 57.434C52.6458 57.4798 52.5575 57.5494 52.4894 57.6368C52.2954 57.9325 52.2029 58.2832 52.2259 58.636V61.055H50.276V55.954Z" fill="#691B20"/>
<path d="M56.7054 58.5308C56.6962 58.1697 56.7616 57.8106 56.8976 57.4758C57.0336 57.141 57.2373 56.8378 57.4959 56.5851C58.0777 56.0784 58.8326 55.8148 59.604 55.8488C60.0324 55.8206 60.4618 55.8859 60.8623 56.0403C61.2628 56.1947 61.6247 56.4345 61.9228 56.7428C62.3609 57.2657 62.5875 57.933 62.5583 58.614C62.529 59.2949 62.246 59.9404 61.7647 60.424C61.4794 60.6983 61.1398 60.9102 60.7678 61.046C60.3957 61.1819 59.9993 61.2387 59.604 61.2128C58.8839 61.2363 58.1773 61.0136 57.6013 60.5818C57.3041 60.3316 57.0686 60.0165 56.9132 59.6608C56.7579 59.3051 56.6868 58.9184 56.7054 58.5308V58.5308ZM58.6553 58.5308C58.6323 58.8836 58.7248 59.2343 58.9188 59.53C59.0053 59.6266 59.1108 59.7044 59.2286 59.7587C59.3465 59.8129 59.4742 59.8425 59.604 59.8455C59.7426 59.85 59.8805 59.824 60.008 59.7695C60.1354 59.715 60.2494 59.6332 60.3418 59.53C60.5125 59.2246 60.6022 58.8806 60.6022 58.5308C60.6022 58.1811 60.5125 57.8371 60.3418 57.5317C60.2553 57.4351 60.1498 57.3573 60.032 57.303C59.9142 57.2487 59.7864 57.2192 59.6567 57.2161C59.518 57.2117 59.3801 57.2377 59.2527 57.2922C59.1252 57.3467 59.0112 57.4284 58.9188 57.5317C58.7248 57.8274 58.6323 58.1781 58.6553 58.5308V58.5308Z" fill="#691B20"/>
</g>
<defs>
<clipPath id="clip0_1_23">
<rect width="202" height="64" fill="white"/>
</clipPath>
</defs>
</svg>
